<?xml version="1.0" encoding="UTF-8"?>
<!--Generator: Apple Native CoreSVG 341-->
<!DOCTYPE svg
PUBLIC "-//W3C//DTD SVG 1.1//EN"
       "http://www.w3.org/Graphics/SVG/1.1/DTD/svg11.dtd">
<svg version="1.1" xmlns="http://www.w3.org/2000/svg" xmlns:xlink="http://www.w3.org/1999/xlink" viewBox="0 0 619.625 716.75">
 <g>
  <rect height="716.75" opacity="0" width="619.625" x="0" y="0"/>
  <path d="M158.562 140L189.812 108.5L88.3125 7C79.5625-1.5 65.5625-1.5 57.0625 7C48.3125 15.75 48.3125 30 57.0625 38.5ZM567.312 517L536.812 485.75C484.812 538.25 412.812 569.75 332.062 569.75C171.062 569.75 44.3125 443.25 44.3125 282.25C44.3125 201.75 76.3125 129.5 127.812 78L96.0625 47.75C36.5625 107.5 0.0625 190.25 0.0625 282.25C0.0625 466.75 147.312 614 332.062 614C424.562 614 507.312 577.25 567.312 517ZM503.312 422L470.312 452L581.812 563.5C590.562 572 604.562 572 613.062 563.5C621.812 554.75 621.812 540.75 613.062 532ZM309.812 602.75L309.812 687.75L354.062 687.75L354.062 602.75ZM220.812 716.75L444.562 716.75C456.812 716.75 466.812 706.75 466.812 694.75C466.812 682.5 456.812 672.5 444.562 672.5L220.812 672.5C208.562 672.5 198.562 682.5 198.562 694.75C198.562 706.75 208.562 716.75 220.812 716.75ZM332.062 518.75C462.812 518.75 568.812 413 568.812 282.25C568.812 151.25 462.812 45.5 332.062 45.5C201.312 45.5 95.3125 151.25 95.3125 282.25C95.3125 413 201.312 518.75 332.062 518.75ZM332.062 477C218.562 477 137.062 395.5 137.062 282.25C137.062 168.75 218.562 87.25 332.062 87.25C445.562 87.25 527.062 168.75 527.062 282.25C527.062 395.5 445.562 477 332.062 477Z" fill="white"/>
 </g>
</svg>
