<?xml version="1.0" encoding="UTF-8"?>
<!--Generator: Apple Native CoreSVG 341-->
<!DOCTYPE svg
PUBLIC "-//W3C//DTD SVG 1.1//EN"
       "http://www.w3.org/Graphics/SVG/1.1/DTD/svg11.dtd">
<svg version="1.1" xmlns="http://www.w3.org/2000/svg" xmlns:xlink="http://www.w3.org/1999/xlink" viewBox="0 0 651.25 651.75">
 <g>
  <rect height="651.75" opacity="0" width="651.25" x="0" y="0"/>
  <path d="M651.25 326C651.25 505.5 505 651.75 325.5 651.75C146.25 651.75 0 505.5 0 326C0 146.75 146.25 0.5 325.5 0.5C505 0.5 651.25 146.75 651.25 326ZM253.25 199C253.25 232 275.75 259.5 305.5 268L305.5 448.75C305.5 493.75 312.75 531 325.5 531C338.25 531 345.25 494.5 345.25 448.75L345.25 268C375.5 259.75 397.75 232.25 397.75 199C397.75 159.25 365.25 127 325.5 127C285.75 127 253.25 159.25 253.25 199ZM330 180.5C330 193 319.75 203.75 307 203.75C294.75 203.75 284 193 283.75 180.5C283.5 168 294.75 157 307 157C319.75 157 330.25 168 330 180.5Z" fill="white"/>
 </g>
</svg>
